<svg id="Groupe_51" data-name="Groupe 51" xmlns="http://www.w3.org/2000/svg" xmlns:xlink="http://www.w3.org/1999/xlink" viewBox="0 0 321.654 40.341">
  <defs>
    <clipPath id="clip-path">
      <rect id="Rectangle_9" data-name="Rectangle 9" width="321.654" height="40.341" fill="none"/>
    </clipPath>
  </defs>
  <g id="Groupe_7" data-name="Groupe 7" transform="translate(0 0)" clip-path="url(#clip-path)">
    <path id="Tracé_51" data-name="Tracé 51" d="M22.65,10.534c-.4-4.7-2.63-7.444-6.065-7.444-7.355,0-13.019,10.19-13.019,19.1,0,5.672,2.32,8.374,6.956,8.374,4.681,0,7.714-2.968,7.714-7.533,0-1.506-.8-2.082-3.165-2.3l.221-.842a31.95,31.95,0,0,0,4.46.31,35.8,35.8,0,0,0,4.636-.31l-.221.842c-1.874.089-2.855,1.949-3.479,5.406l-.4,2.08.8.977A20.682,20.682,0,0,1,10.3,31.979C3.21,31.979,0,29.232,0,22.364,0,11.465,6.285,1.54,17.521,1.54a22,22,0,0,1,7.045.975,36.263,36.263,0,0,0-.847,8.02Z" transform="translate(0 1.87)"/>
    <path id="Tracé_52" data-name="Tracé 52" d="M31.635,6.084l.357.4c-2.721,5.539-4.057,10.058-4.057,13.779,0,2.66.981,4.122,2.719,4.122,3.655,0,7.4-8.02,7.4-13.2,0-2.128-.624-3.5-1.649-3.5a3.166,3.166,0,0,0-1.783.667l-.4-.622a8.181,8.181,0,0,1,4.9-2.082c1.25,0,1.741.664,1.741,2.259,0,6.115-4.948,19.1-11.459,19.1-2.675,0-4.057-1.772-4.057-5.183A25.378,25.378,0,0,1,26.6,14.635h-.221C22.764,23.408,19.864,27,16.431,27c-2.318,0-3.7-1.728-3.7-4.74,0-3.632,1.917-7.931,5.973-13.513h-1.56c-2.006,0-3.167.089-4.146,1.993l-.76-.268c1.426-3.544,2.006-4.385,4.324-4.385h3.346c.847,0,1.248.221,1.248.709,0,.221-.045.31-.8,1.553-2.588,4.208-4.77,8.461-4.77,12.272,0,2.259.847,3.588,2.271,3.588,2.409,0,5-4.563,6.557-7.8a77.612,77.612,0,0,0,3.878-9.526Z" transform="translate(15.04 6.852)"/>
    <path id="Tracé_53" data-name="Tracé 53" d="M39.741,22.434C37.51,24.782,34.88,27,31.269,27c-3.435,0-5.349-2.259-5.349-6.2,0-8.284,5.3-15.152,11.768-15.152,3.167,0,4.95,1.506,4.95,4.208,0,3.59-3.033,5.894-7.714,5.894a14.939,14.939,0,0,1-5.126-.93,13.154,13.154,0,0,0-.892,4.784c0,3.1,1.471,5.008,3.923,5.008,1.917,0,3.88-1.107,5.931-3.278ZM34.256,14.37c3.21,0,5.218-1.728,5.218-4.43,0-1.818-1.025-2.97-2.632-2.97-2.539,0-5.171,2.614-6.6,6.6a9.037,9.037,0,0,0,4.014.8" transform="translate(31.852 6.852)"/>
    <path id="Tracé_54" data-name="Tracé 54" d="M34.5,26.288a80.784,80.784,0,0,0,3.254-9.437,29.044,29.044,0,0,0,1.2-6.558c0-1.24-.31-1.86-.976-1.86s-1.654.709-2.857,1.86l-.671-.709c1.966-2.171,4.819-3.942,6.733-3.942.76,0,1.117.354,1.117,1.2a21.571,21.571,0,0,1-.849,4.476l-1.244,4.961c1.957-3.234,6.33-10.633,11.008-10.633,1.917,0,2.721,1.107,2.721,3.1a18.558,18.558,0,0,1-.847,4.828L51.451,19.6a15.724,15.724,0,0,0-.493,3.147c0,1.019.31,1.418.889,1.418.629,0,1.832-.8,3.033-2.082l.713.8C53.365,25.18,50.377,27,48.683,27a1.166,1.166,0,0,1-1.2-1.285,15.4,15.4,0,0,1,.669-3.632l2.142-7.8a16.541,16.541,0,0,0,.622-3.9c0-1.329-.4-1.949-1.469-1.949-1.562,0-3.927,1.949-6.6,5.982A33.423,33.423,0,0,0,37.8,25.978L35,27Z" transform="translate(42.344 6.852)"/>
    <path id="Tracé_55" data-name="Tracé 55" d="M65.2,5.561l.31.354c-1.424,3.278-4.5,12.76-4.5,16.658,0,1.107.265,1.685.8,1.685.713,0,1.917-.755,3.12-2.04l.626.667c-2.008,2.348-4.995,4.208-6.733,4.208-.8,0-1.2-.4-1.2-1.329a16.99,16.99,0,0,1,.8-4.255l1.248-4.873c-1.783,2.968-6.553,10.456-10.612,10.456-2.363,0-3.7-1.9-3.7-5.362,0-6.735,4.326-15.993,11.9-15.993A5.739,5.739,0,0,1,61.9,7.732l.446-1.816ZM48.346,20.624c0,2.261.8,3.5,2.365,3.5,3.789,0,10.431-11.209,10.431-14.268,0-1.595-1.424-2.658-3.566-2.658-5.661,0-9.23,8.859-9.23,13.424" transform="translate(55.74 6.755)"/>
    <path id="Tracé_56" data-name="Tracé 56" d="M69.6,22.434C67.369,24.782,64.739,27,61.13,27c-3.435,0-5.352-2.259-5.352-6.2,0-8.284,5.307-15.152,11.771-15.152,3.165,0,4.95,1.506,4.95,4.208,0,3.59-3.033,5.894-7.716,5.894a14.927,14.927,0,0,1-5.124-.93,13.161,13.161,0,0,0-.894,4.784c0,3.1,1.471,5.008,3.925,5.008,1.917,0,3.88-1.107,5.931-3.278ZM64.117,14.37c3.207,0,5.218-1.728,5.218-4.43,0-1.818-1.025-2.97-2.632-2.97-2.539,0-5.171,2.614-6.6,6.6a9.024,9.024,0,0,0,4.014.8" transform="translate(68.545 6.852)"/>
    <path id="Tracé_57" data-name="Tracé 57" d="M66.279,3.942C68.374,1.772,71.45,0,73.146,0a1.167,1.167,0,0,1,1.2,1.285,12.4,12.4,0,0,1-.535,2.879L69,22.95a32.573,32.573,0,0,0-1.25,6.556c0,.93.314,1.42.894,1.42.713,0,1.56-.622,2.942-2.04l.8.8c-2.452,2.481-5.4,4.164-7.088,4.164a1.137,1.137,0,0,1-1.161-1.285c0-1.065.312-2.261,1.248-5.894L69.4,11.165a31.606,31.606,0,0,0,1.25-7.09c0-.8-.267-1.107-.8-1.107a6.021,6.021,0,0,0-2.855,1.816Z" transform="translate(78.818 -0.001)"/>
    <path id="Tracé_58" data-name="Tracé 58" d="M71.258,3.942C73.353,1.772,76.429,0,78.125,0a1.167,1.167,0,0,1,1.2,1.285,12.4,12.4,0,0,1-.535,2.879L73.979,22.95a32.572,32.572,0,0,0-1.25,6.556c0,.93.314,1.42.894,1.42.713,0,1.56-.622,2.942-2.04l.8.8c-2.452,2.481-5.4,4.164-7.088,4.164a1.137,1.137,0,0,1-1.161-1.285c0-1.065.312-2.261,1.248-5.894l4.012-15.506a31.606,31.606,0,0,0,1.25-7.09c0-.8-.267-1.107-.8-1.107a6.021,6.021,0,0,0-2.855,1.816Z" transform="translate(84.937 -0.001)"/>
    <path id="Tracé_59" data-name="Tracé 59" d="M87.819,22.434C85.588,24.782,82.958,27,79.347,27,75.913,27,74,24.737,74,20.793c0-8.284,5.3-15.152,11.768-15.152,3.167,0,4.95,1.506,4.95,4.208,0,3.59-3.033,5.894-7.714,5.894a14.939,14.939,0,0,1-5.126-.93,13.154,13.154,0,0,0-.892,4.784c0,3.1,1.471,5.008,3.923,5.008,1.917,0,3.88-1.107,5.931-3.278ZM82.334,14.37c3.21,0,5.218-1.728,5.218-4.43,0-1.818-1.025-2.97-2.632-2.97-2.539,0-5.171,2.614-6.6,6.6a9.037,9.037,0,0,0,4.014.8" transform="translate(90.934 6.852)"/>
    <path id="Tracé_60" data-name="Tracé 60" d="M86.245,30.465a.346.346,0,0,1-.323-.319l.085-14.835L85.922,2.87a.346.346,0,0,1,.323-.321H87.73a.346.346,0,0,1,.323.321l-.08,12.441.08,13.44h13.164a.34.34,0,0,1,.317.319v1.076a.34.34,0,0,1-.317.319Z" transform="translate(105.587 3.096)"/>
    <path id="Tracé_61" data-name="Tracé 61" d="M110.32,19.4a.309.309,0,0,1,.283.319c-.767,4.5-3.575,7.378-8.512,7.378-6.1,0-9.31-4.348-9.31-10.649s3.49-10.766,9.071-10.766c5.458,0,8.751,3.787,8.869,10.328a.346.346,0,0,1-.323.319l-15.611.04c0,5.783,2.452,9.172,7.344,9.172,3.736,0,5.86-2.193,6.544-5.821a.347.347,0,0,1,.361-.319ZM101.852,7.238c-4.092,0-6.5,2.91-6.983,7.5h13.725c-.042-4.148-2.367-7.5-6.742-7.5" transform="translate(114.015 6.903)"/>
    <path id="Tracé_62" data-name="Tracé 62" d="M111,27.057a7.157,7.157,0,0,1-6.905-4.348l.123,10.41a.346.346,0,0,1-.323.319h-1.444a.344.344,0,0,1-.323-.319l.123-15.911-.123-10.769a.344.344,0,0,1,.323-.319h1.362a.346.346,0,0,1,.323.319l-.08,3.829a7.433,7.433,0,0,1,6.983-4.587c5.376,0,8.267,4.667,8.267,10.647,0,5.9-2.969,10.729-8.3,10.729m-.406-1.555c4.618,0,6.7-3.989,6.7-8.932,0-5.185-2.046-9.333-6.66-9.333-3.976,0-6.622,3.032-6.667,8.935-.038,5.863,2.407,9.331,6.622,9.331" transform="translate(125.494 6.902)"/>
    <path id="Tracé_63" data-name="Tracé 63" d="M128.3,19.4a.309.309,0,0,1,.279.319c-.762,4.5-3.571,7.378-8.508,7.378-6.1,0-9.31-4.348-9.31-10.649s3.49-10.766,9.067-10.766c5.458,0,8.751,3.787,8.871,10.328a.344.344,0,0,1-.321.319l-15.611.04c0,5.783,2.447,9.172,7.344,9.172,3.731,0,5.86-2.193,6.544-5.821a.347.347,0,0,1,.361-.319ZM119.83,7.238c-4.092,0-6.5,2.91-6.983,7.5h13.725c-.038-4.148-2.367-7.5-6.742-7.5" transform="translate(136.113 6.903)"/>
    <path id="Tracé_64" data-name="Tracé 64" d="M120.517,30.465a.346.346,0,0,1-.323-.319l.123-13.918L120.194,2.87a.346.346,0,0,1,.323-.321h1.4a.344.344,0,0,1,.321.321l-.078,13.278.078,14a.344.344,0,0,1-.321.319Z" transform="translate(147.702 3.096)"/>
    <path id="Tracé_65" data-name="Tracé 65" d="M132.2,28.84a.387.387,0,0,1-.319.4,9.159,9.159,0,0,1-2.166.319c-2.69,0-4.7-1.355-4.7-5.7l.045-13.519h-2.369a.344.344,0,0,1-.321-.321v-1a.344.344,0,0,1,.321-.319h2.369l-.082-4.824a.344.344,0,0,1,.321-.319h1.406a.346.346,0,0,1,.319.319l-.04,4.824h4.9a.34.34,0,0,1,.319.319v1a.341.341,0,0,1-.319.321h-4.9V23.857c0,3.07.845,3.987,2.851,3.987a10.443,10.443,0,0,0,2.046-.2.254.254,0,0,1,.319.239Z" transform="translate(150.379 4.322)"/>
    <path id="Tracé_66" data-name="Tracé 66" d="M128.292,6.206a.346.346,0,0,1-.323-.319V3.734a.348.348,0,0,1,.323-.321h1.4a.346.346,0,0,1,.321.321V5.887a.344.344,0,0,1-.321.319Zm0,23.209a.346.346,0,0,1-.323-.319l.08-10.527-.08-9.373a.346.346,0,0,1,.323-.319h1.4a.344.344,0,0,1,.321.319l-.038,9.331.038,10.569a.344.344,0,0,1-.321.319Z" transform="translate(157.257 4.145)"/>
    <path id="Tracé_67" data-name="Tracé 67" d="M147.829,19.4a.309.309,0,0,1,.283.319c-.767,4.5-3.575,7.378-8.512,7.378-6.1,0-9.31-4.348-9.31-10.649s3.49-10.766,9.071-10.766c5.458,0,8.751,3.787,8.869,10.328a.346.346,0,0,1-.323.319l-15.611.04c0,5.783,2.452,9.172,7.344,9.172,3.736,0,5.86-2.193,6.544-5.821a.347.347,0,0,1,.361-.319ZM139.361,7.238c-4.092,0-6.5,2.91-6.983,7.5H146.1c-.042-4.148-2.367-7.5-6.742-7.5" transform="translate(160.109 6.903)"/>
    <path id="Tracé_68" data-name="Tracé 68" d="M139.954,26.549a.346.346,0,0,1-.323-.319l.123-10.29-.123-9.61a.346.346,0,0,1,.323-.319h1.406a.34.34,0,0,1,.316.319l-.116,3.79a7.486,7.486,0,0,1,6.782-4.348,5.02,5.02,0,0,1,1.4.159.43.43,0,0,1,.321.4V7.407a.257.257,0,0,1-.321.239,5.356,5.356,0,0,0-1.484-.157c-2.969,0-5.9,1.914-6.662,6.3l.078,12.443a.34.34,0,0,1-.316.319Z" transform="translate(171.588 7.011)"/>
  </g>
</svg>
