<svg id="Groupe_42" data-name="Groupe 42" xmlns="http://www.w3.org/2000/svg" xmlns:xlink="http://www.w3.org/1999/xlink" viewBox="0 0 305.712 38.961">
  <defs>
    <clipPath id="clip-path">
      <rect id="Rectangle_28" data-name="Rectangle 28" width="305.712" height="38.961" fill="none"/>
    </clipPath>
    <clipPath id="clip-path-3">
      <rect id="Rectangle_21" data-name="Rectangle 21" width="9.948" height="13.188" fill="none"/>
    </clipPath>
    <clipPath id="clip-path-4">
      <rect id="Rectangle_22" data-name="Rectangle 22" width="16.143" height="15.458" fill="none"/>
    </clipPath>
    <clipPath id="clip-path-5">
      <rect id="Rectangle_23" data-name="Rectangle 23" width="7.232" height="3.689" fill="none"/>
    </clipPath>
    <clipPath id="clip-path-6">
      <rect id="Rectangle_24" data-name="Rectangle 24" width="10.726" height="14.822" fill="none"/>
    </clipPath>
    <clipPath id="clip-path-7">
      <rect id="Rectangle_25" data-name="Rectangle 25" width="5.985" height="4.444" fill="none"/>
    </clipPath>
    <clipPath id="clip-path-8">
      <rect id="Rectangle_26" data-name="Rectangle 26" width="17.262" height="21.494" fill="none"/>
    </clipPath>
  </defs>
  <g id="Groupe_41" data-name="Groupe 41" clip-path="url(#clip-path)">
    <g id="Groupe_40" data-name="Groupe 40">
      <g id="Groupe_39" data-name="Groupe 39" clip-path="url(#clip-path)">
        <path id="Tracé_136" data-name="Tracé 136" d="M184.409,34.587c-.33-3.891-2.166-6.167-4.993-6.167-6.057,0-10.719,8.443-10.719,15.821,0,4.7,1.909,6.938,5.726,6.938,3.854,0,6.35-2.459,6.35-6.241,0-1.248-.661-1.725-2.606-1.909l.184-.7a26.076,26.076,0,0,0,3.671.257,29.253,29.253,0,0,0,3.818-.257l-.184.7c-1.542.073-2.349,1.615-2.863,4.478l-.33,1.726.66.808a16.939,16.939,0,0,1-8.883,2.313c-5.837,0-8.48-2.276-8.48-7.966,0-9.03,5.176-17.253,14.426-17.253a18.025,18.025,0,0,1,5.8.807,30.226,30.226,0,0,0-.7,6.644Z" transform="translate(-124.909 -20.448)" fill="#0a0a0a"/>
        <path id="Tracé_137" data-name="Tracé 137" d="M272.876,58.037l.294.33c-2.239,4.589-3.341,8.333-3.341,11.416,0,2.2.808,3.414,2.239,3.414,3.01,0,6.094-6.644,6.094-10.939,0-1.762-.514-2.9-1.358-2.9a2.616,2.616,0,0,0-1.468.551l-.331-.514a6.714,6.714,0,0,1,4.038-1.725c1.028,0,1.432.551,1.432,1.872,0,5.066-4.075,15.822-9.434,15.822-2.2,0-3.34-1.469-3.34-4.3a21.087,21.087,0,0,1,1.028-5.946h-.184c-2.973,7.268-5.359,10.242-8.186,10.242-1.909,0-3.047-1.432-3.047-3.928,0-3.01,1.578-6.571,4.919-11.2h-1.285c-1.652,0-2.606.073-3.414,1.652l-.624-.221c1.175-2.936,1.652-3.634,3.561-3.634h2.753c.7,0,1.028.184,1.028.588,0,.183-.037.257-.661,1.285-2.129,3.487-3.928,7.011-3.928,10.168,0,1.872.7,2.973,1.872,2.973,1.982,0,4.111-3.782,5.4-6.461a64.554,64.554,0,0,0,3.194-7.892Z" transform="translate(-193.593 -43.457)" fill="#0a0a0a"/>
        <path id="Tracé_138" data-name="Tracé 138" d="M370.162,71.582c-1.835,1.946-4,3.782-6.974,3.782-2.827,0-4.405-1.873-4.405-5.139,0-6.864,4.368-12.554,9.691-12.554,2.606,0,4.075,1.248,4.075,3.487,0,2.973-2.5,4.882-6.35,4.882a12.236,12.236,0,0,1-4.222-.771,11,11,0,0,0-.734,3.964c0,2.57,1.211,4.148,3.23,4.148,1.578,0,3.193-.918,4.882-2.716ZM365.647,64.9c2.643,0,4.295-1.432,4.295-3.671a2.171,2.171,0,0,0-2.166-2.459c-2.092,0-4.258,2.166-5.433,5.469a7.385,7.385,0,0,0,3.3.661" transform="translate(-270.361 -43.457)" fill="#0a0a0a"/>
        <path id="Tracé_139" data-name="Tracé 139" d="M422.415,74.776a67.481,67.481,0,0,0,2.68-7.819,24.2,24.2,0,0,0,.991-5.432c0-1.028-.257-1.542-.808-1.542s-1.358.587-2.349,1.542l-.55-.588c1.615-1.8,3.964-3.267,5.543-3.267.624,0,.918.294.918.991a18.177,18.177,0,0,1-.7,3.707l-1.028,4.111c1.615-2.68,5.213-8.81,9.067-8.81,1.578,0,2.239.918,2.239,2.57a15.553,15.553,0,0,1-.7,4l-1.358,4.992a13.343,13.343,0,0,0-.4,2.606c0,.845.257,1.175.734,1.175a4.9,4.9,0,0,0,2.5-1.726l.588.661c-1.836,1.909-4.3,3.414-5.69,3.414A.964.964,0,0,1,433.1,74.3a12.835,12.835,0,0,1,.551-3.01l1.762-6.461a13.8,13.8,0,0,0,.514-3.23c0-1.1-.33-1.615-1.211-1.615-1.285,0-3.23,1.615-5.433,4.956a27.763,27.763,0,0,0-4.148,9.581l-2.313.845Z" transform="translate(-318.284 -43.457)" fill="#0a0a0a"/>
        <path id="Tracé_140" data-name="Tracé 140" d="M519.883,57.073l.257.294c-1.175,2.716-3.708,10.572-3.708,13.8,0,.918.22,1.4.661,1.4a4.621,4.621,0,0,0,2.57-1.689l.514.551c-1.652,1.946-4.111,3.488-5.543,3.488-.661,0-.991-.33-.991-1.1a14.166,14.166,0,0,1,.661-3.524l1.028-4.038c-1.468,2.46-5.4,8.663-8.736,8.663-1.945,0-3.047-1.579-3.047-4.441,0-5.58,3.561-13.252,9.8-13.252a4.716,4.716,0,0,1,3.818,1.652l.367-1.5ZM506.008,69.554c0,1.872.661,2.9,1.945,2.9,3.12,0,8.59-9.287,8.59-11.82,0-1.321-1.175-2.2-2.937-2.2-4.662,0-7.6,7.342-7.6,11.122" transform="translate(-379.449 -43.007)" fill="#0a0a0a"/>
        <path id="Tracé_141" data-name="Tracé 141" d="M592.524,71.582c-1.836,1.946-4,3.782-6.975,3.782-2.827,0-4.4-1.873-4.4-5.139,0-6.864,4.368-12.554,9.691-12.554,2.606,0,4.075,1.248,4.075,3.487,0,2.973-2.5,4.882-6.351,4.882a12.236,12.236,0,0,1-4.222-.771,11.006,11.006,0,0,0-.734,3.964c0,2.57,1.211,4.148,3.23,4.148,1.578,0,3.193-.918,4.882-2.716ZM588.009,64.9c2.643,0,4.295-1.432,4.295-3.671a2.171,2.171,0,0,0-2.166-2.459c-2.092,0-4.258,2.166-5.433,5.469a7.385,7.385,0,0,0,3.3.661" transform="translate(-437.923 -43.457)" fill="#0a0a0a"/>
        <path id="Tracé_142" data-name="Tracé 142" d="M645.162,18.933c1.725-1.8,4.258-3.267,5.653-3.267a.965.965,0,0,1,.992,1.064,10.345,10.345,0,0,1-.44,2.386L647.4,34.681a27.238,27.238,0,0,0-1.028,5.433c0,.771.257,1.175.734,1.175.588,0,1.285-.514,2.423-1.689l.661.661c-2.019,2.055-4.442,3.451-5.837,3.451a.939.939,0,0,1-.954-1.065,23.37,23.37,0,0,1,1.028-4.882l3.3-12.848a26.283,26.283,0,0,0,1.028-5.874c0-.661-.22-.917-.661-.917a4.945,4.945,0,0,0-2.349,1.5Z" transform="translate(-484.835 -11.805)" fill="#0a0a0a"/>
        <path id="Tracé_143" data-name="Tracé 143" d="M682.247,18.933c1.725-1.8,4.258-3.267,5.653-3.267a.965.965,0,0,1,.991,1.064,10.322,10.322,0,0,1-.441,2.386l-3.964,15.564a27.243,27.243,0,0,0-1.028,5.433c0,.771.257,1.175.734,1.175.587,0,1.285-.514,2.423-1.689l.661.661c-2.019,2.055-4.441,3.451-5.836,3.451a.939.939,0,0,1-.954-1.065,23.37,23.37,0,0,1,1.028-4.882l3.3-12.848a26.306,26.306,0,0,0,1.027-5.874c0-.661-.22-.917-.661-.917a4.947,4.947,0,0,0-2.349,1.5Z" transform="translate(-512.78 -11.805)" fill="#0a0a0a"/>
        <path id="Tracé_144" data-name="Tracé 144" d="M728.205,71.582c-1.835,1.946-4,3.782-6.974,3.782-2.827,0-4.405-1.873-4.405-5.139,0-6.864,4.368-12.554,9.691-12.554,2.606,0,4.075,1.248,4.075,3.487,0,2.973-2.5,4.882-6.35,4.882a12.237,12.237,0,0,1-4.222-.771,11,11,0,0,0-.734,3.964c0,2.57,1.211,4.148,3.23,4.148,1.578,0,3.193-.918,4.882-2.716ZM723.691,64.9c2.643,0,4.294-1.432,4.294-3.671a2.17,2.17,0,0,0-2.166-2.459c-2.092,0-4.258,2.166-5.433,5.469a7.387,7.387,0,0,0,3.3.661" transform="translate(-540.165 -43.457)" fill="#0a0a0a"/>
        <path id="Tracé_145" data-name="Tracé 145" d="M805.892,57.782a.284.284,0,0,1-.265-.264l.066-12.29-.066-10.308a.285.285,0,0,1,.265-.264h1.222a.284.284,0,0,1,.264.264l-.066,10.308.066,11.134h10.837a.285.285,0,0,1,.264.265v.892a.284.284,0,0,1-.264.264Z" transform="translate(-607.081 -26.114)" fill="#0a0a0a"/>
        <path id="Tracé_146" data-name="Tracé 146" d="M871.138,69.348a.255.255,0,0,1,.231.264c-.627,3.733-2.94,6.112-7,6.112-5.022,0-7.665-3.6-7.665-8.822s2.874-8.92,7.467-8.92c4.494,0,7.2,3.139,7.3,8.557a.284.284,0,0,1-.264.264l-12.852.033c0,4.791,2.016,7.6,6.046,7.6,3.073,0,4.824-1.817,5.385-4.824a.289.289,0,0,1,.3-.264Zm-6.972-10.077c-3.37,0-5.352,2.412-5.749,6.211h11.3c-.033-3.436-1.95-6.211-5.551-6.211" transform="translate(-645.567 -43.693)" fill="#0a0a0a"/>
        <path id="Tracé_147" data-name="Tracé 147" d="M933.57,75.691a5.892,5.892,0,0,1-5.683-3.6l.1,8.623a.284.284,0,0,1-.264.264h-1.19a.284.284,0,0,1-.264-.264l.1-13.183-.1-8.92a.285.285,0,0,1,.264-.265h1.124a.285.285,0,0,1,.264.265l-.066,3.172a6.12,6.12,0,0,1,5.749-3.8c4.427,0,6.806,3.865,6.806,8.821,0,4.89-2.445,8.888-6.839,8.888m-.33-1.288c3.8,0,5.517-3.3,5.517-7.4,0-4.3-1.685-7.731-5.484-7.731-3.271,0-5.452,2.511-5.484,7.4-.033,4.857,1.983,7.731,5.452,7.731" transform="translate(-697.991 -43.693)" fill="#0a0a0a"/>
        <path id="Tracé_148" data-name="Tracé 148" d="M1005.047,69.348a.255.255,0,0,1,.231.264c-.627,3.733-2.94,6.112-7,6.112-5.022,0-7.665-3.6-7.665-8.822s2.874-8.92,7.467-8.92c4.494,0,7.2,3.139,7.3,8.557a.284.284,0,0,1-.264.264l-12.852.033c0,4.791,2.016,7.6,6.046,7.6,3.073,0,4.824-1.817,5.385-4.824a.289.289,0,0,1,.3-.264Zm-6.972-10.077c-3.37,0-5.352,2.412-5.749,6.211h11.3c-.033-3.436-1.949-6.211-5.551-6.211" transform="translate(-746.475 -43.693)" fill="#0a0a0a"/>
        <path id="Tracé_149" data-name="Tracé 149" d="M1061.112,57.782a.284.284,0,0,1-.265-.264l.1-11.531-.1-11.068a.285.285,0,0,1,.265-.264h1.156a.284.284,0,0,1,.264.264l-.066,11,.066,11.6a.284.284,0,0,1-.264.264Z" transform="translate(-799.403 -26.114)" fill="#0a0a0a"/>
        <path id="Tracé_150" data-name="Tracé 150" d="M1085.161,63.109a.321.321,0,0,1-.264.33,7.487,7.487,0,0,1-1.784.264c-2.214,0-3.866-1.123-3.866-4.724l.033-11.2h-1.949a.285.285,0,0,1-.265-.265v-.826a.285.285,0,0,1,.265-.265h1.949l-.066-4a.284.284,0,0,1,.264-.264h1.157a.284.284,0,0,1,.265.264l-.033,4h4.031a.284.284,0,0,1,.264.265v.826a.284.284,0,0,1-.264.265h-4.031v11.2c0,2.544.694,3.3,2.346,3.3a8.563,8.563,0,0,0,1.685-.165.212.212,0,0,1,.264.2Z" transform="translate(-811.625 -31.771)" fill="#0a0a0a"/>
        <path id="Tracé_151" data-name="Tracé 151" d="M1119.017,43.4a.284.284,0,0,1-.265-.264V41.354a.285.285,0,0,1,.265-.265h1.156a.285.285,0,0,1,.264.265v1.784a.284.284,0,0,1-.264.264Zm0,19.229a.284.284,0,0,1-.265-.264l.067-8.722-.067-7.764a.285.285,0,0,1,.265-.265h1.156a.285.285,0,0,1,.264.265l-.033,7.731.033,8.755a.284.284,0,0,1-.264.264Z" transform="translate(-843.037 -30.963)" fill="#0a0a0a"/>
        <path id="Tracé_152" data-name="Tracé 152" d="M1150.481,69.348a.255.255,0,0,1,.231.264c-.627,3.733-2.94,6.112-7,6.112-5.021,0-7.665-3.6-7.665-8.822s2.874-8.92,7.467-8.92c4.494,0,7.2,3.139,7.3,8.557a.284.284,0,0,1-.264.264l-12.852.033c0,4.791,2.016,7.6,6.046,7.6,3.073,0,4.824-1.817,5.385-4.824a.289.289,0,0,1,.3-.264Zm-6.972-10.077c-3.37,0-5.352,2.412-5.749,6.211h11.3c-.033-3.436-1.95-6.211-5.551-6.211" transform="translate(-856.067 -43.693)" fill="#0a0a0a"/>
        <path id="Tracé_153" data-name="Tracé 153" d="M1205.875,75.864a.284.284,0,0,1-.264-.264l.1-8.524-.1-7.962a.285.285,0,0,1,.264-.265h1.156a.285.285,0,0,1,.265.265l-.1,3.139a6.167,6.167,0,0,1,5.584-3.6,4.116,4.116,0,0,1,1.156.132.356.356,0,0,1,.264.33v.892a.212.212,0,0,1-.264.2,4.312,4.312,0,0,0-1.223-.132c-2.445,0-4.856,1.586-5.484,5.22L1207.3,75.6a.284.284,0,0,1-.265.264Z" transform="translate(-908.49 -44.197)" fill="#0a0a0a"/>
        <g id="Groupe_23" data-name="Groupe 23" transform="translate(20.297 17.805)" opacity="0.35">
          <g id="Groupe_22" data-name="Groupe 22">
            <g id="Groupe_21" data-name="Groupe 21" clip-path="url(#clip-path-3)">
              <path id="Tracé_154" data-name="Tracé 154" d="M91.592,85.384a1.072,1.072,0,0,1-.307.051,1.017,1.017,0,0,1-.97-.715,18.053,18.053,0,0,0-3.493-6.272,17.827,17.827,0,0,0-1.42-1.481,18.159,18.159,0,0,0-2.85-2.227c0-.133-.01-.266-.02-.409-.051-.654-.1-1.348-.174-2.084a21.541,21.541,0,0,1,4.648,3.432A17.433,17.433,0,0,1,88.4,77.172a19.823,19.823,0,0,1,3.861,6.936,1.01,1.01,0,0,1-.664,1.277" transform="translate(-82.358 -72.248)" fill="#0a0a0a"/>
            </g>
          </g>
        </g>
        <g id="Groupe_26" data-name="Groupe 26" transform="translate(0.352 15.366)" opacity="0.35">
          <g id="Groupe_25" data-name="Groupe 25">
            <g id="Groupe_24" data-name="Groupe 24" clip-path="url(#clip-path-4)">
              <path id="Tracé_155" data-name="Tracé 155" d="M17.482,75.011a1.019,1.019,0,0,1-.519,1.35,16.21,16.21,0,0,1-9.94,1.073,9.62,9.62,0,0,1-1.35-.462c-.223-.1-.438-.2-.642-.315A6.907,6.907,0,0,1,1.761,72.8a7.687,7.687,0,0,1,2.993-8.367,11.735,11.735,0,0,1,6.385-2.081c-.488.693-.939,1.358-1.358,1.981-.062.081-.112.173-.165.254a8.748,8.748,0,0,0-3.647,1.5,5.656,5.656,0,0,0-2.277,6.047,4.816,4.816,0,0,0,1.654,2.3,5.233,5.233,0,0,0,1.135.665,7.188,7.188,0,0,0,.777.285,14.036,14.036,0,0,0,8.878-.888,1.009,1.009,0,0,1,1.346.519" transform="translate(-1.43 -62.348)" fill="#0a0a0a"/>
            </g>
          </g>
        </g>
        <g id="Groupe_29" data-name="Groupe 29" transform="translate(11.123 15.423)" opacity="0.35">
          <g id="Groupe_28" data-name="Groupe 28">
            <g id="Groupe_27" data-name="Groupe 27" clip-path="url(#clip-path-5)">
              <path id="Tracé_156" data-name="Tracé 156" d="M46.053,64.6c-.3-.023-.6-.042-.919-.042.481-.685.95-1.35,1.419-1.973a19.8,19.8,0,0,1,5.578,1.362c.092.765.165,1.543.235,2.327A17.812,17.812,0,0,0,46.053,64.6" transform="translate(-45.134 -62.582)" fill="#0a0a0a"/>
            </g>
          </g>
        </g>
        <path id="Tracé_157" data-name="Tracé 157" d="M75.9,71.617a18.945,18.945,0,0,0-2.135-1.185c-.072-.787-.143-1.563-.235-2.329a21.1,21.1,0,0,1,2.176,1.022c.071.735.123,1.43.174,2.084.01.143.02.276.02.409" transform="translate(-55.409 -51.319)" fill="#0a0a0a"/>
        <path id="Tracé_158" data-name="Tracé 158" d="M20.3,17.805a21.074,21.074,0,0,0-2.176-1.022,30.733,30.733,0,0,0-1.3-6.466A13.7,13.7,0,0,0,16,8.244a9.566,9.566,0,0,0-5.424-5.087C7.661,2.095,4.525,2.013,1.022,2.044A1.022,1.022,0,0,1,1.011,0c3.565-.01,7.038.061,10.256,1.236A11.433,11.433,0,0,1,17.539,6.8a18.6,18.6,0,0,1,.9,1.941A33.777,33.777,0,0,1,20.3,17.805" transform="translate(0 0)" fill="#0a0a0a"/>
        <path id="Tracé_159" data-name="Tracé 159" d="M18.46,107.541a5.164,5.164,0,0,1-1.134-.664c.051-.225.092-.45.133-.654a1.023,1.023,0,1,1,2,.419c-.072.368-.153.766-.225,1.185a7.024,7.024,0,0,1-.776-.286" transform="translate(-13.056 -79.429)" fill="#0a0a0a"/>
        <path id="Tracé_160" data-name="Tracé 160" d="M32.417,75.6c-.03.858-.092,1.7-.184,2.5-.031.245-.061.49-.092.725-.613,4.443-2.625,8.07-5.669,10.2a7.065,7.065,0,0,1-4.045,1.246,7.15,7.15,0,0,1-1.961-.266,5.993,5.993,0,0,1-3.973-3.381,11.52,11.52,0,0,1-.684-5.639c.2.112.419.214.643.317a9.5,9.5,0,0,0,1.348.46,9,9,0,0,0,.572,4.045,3.945,3.945,0,0,0,2.646,2.227,5.121,5.121,0,0,0,4.28-.684c3.463-2.431,4.5-6.568,4.822-8.815a33.232,33.232,0,0,0,.164-7.181c-.02-.307-.051-.623-.072-.93-.071-.787-.143-1.563-.235-2.329a21.1,21.1,0,0,1,2.176,1.021c.072.736.123,1.43.174,2.084.01.143.02.276.02.409a34.994,34.994,0,0,1,.071,3.984" transform="translate(-11.855 -51.319)" fill="#0a0a0a"/>
        <g id="Groupe_32" data-name="Groupe 32" transform="translate(6.098 8.245)" opacity="0.55">
          <g id="Groupe_31" data-name="Groupe 31">
            <g id="Groupe_30" data-name="Groupe 30" clip-path="url(#clip-path-6)">
              <path id="Tracé_161" data-name="Tracé 161" d="M35.467,35.53a50.283,50.283,0,0,0-4.281,5.1c-.469.623-.939,1.289-1.42,1.973-.235.346-.481.715-.723,1.085a38.268,38.268,0,0,0-2.37,4.024,1.023,1.023,0,0,1-1.831-.912,33.817,33.817,0,0,1,2.339-3.993c.054-.081.1-.173.165-.254.419-.623.869-1.288,1.358-1.981a51.14,51.14,0,0,1,5.935-7.12,13.457,13.457,0,0,1,.827,2.073" transform="translate(-24.741 -33.457)" fill="#0a0a0a"/>
            </g>
          </g>
        </g>
        <g id="Groupe_35" data-name="Groupe 35" transform="translate(18.776 22.525)" opacity="0.55">
          <g id="Groupe_34" data-name="Groupe 34">
            <g id="Groupe_33" data-name="Groupe 33" clip-path="url(#clip-path-7)">
              <path id="Tracé_162" data-name="Tracé 162" d="M82.171,92.878c-.276.215-.562.429-.848.633A23.073,23.073,0,0,1,79.3,94.758c-.511.286-1.022.572-1.512.9-.01,0-.01.01-.02.01a1.035,1.035,0,0,1-.562.174,1.026,1.026,0,0,1-.562-1.879c.439-.286.888-.552,1.328-.807a3.1,3.1,0,0,0,.317-.174,19.38,19.38,0,0,0,1.849-1.134c.2-.143.408-.3.613-.45a17.752,17.752,0,0,1,1.42,1.481" transform="translate(-76.187 -91.397)" fill="#0a0a0a"/>
            </g>
          </g>
        </g>
        <g id="Groupe_38" data-name="Groupe 38" transform="translate(17.539 1.235)" opacity="0.55">
          <g id="Groupe_37" data-name="Groupe 37">
            <g id="Groupe_36" data-name="Groupe 36" clip-path="url(#clip-path-8)">
              <path id="Tracé_163" data-name="Tracé 163" d="M84.344,21.714a26.734,26.734,0,0,1-4.382,4.791,17.432,17.432,0,0,0-1.389-1.491,24.662,24.662,0,0,0,4.1-4.474c1.828-2.584,4.7-8.662,3.422-11.7a2.963,2.963,0,0,0-2.513-1.726,8.192,8.192,0,0,0-3.565.429,11.739,11.739,0,0,0-2.3.889,27.847,27.847,0,0,0-5.649,4.086,18.6,18.6,0,0,0-.9-1.941,30.142,30.142,0,0,1,5.577-3.943,13.553,13.553,0,0,1,2.7-1.052,10.233,10.233,0,0,1,4.464-.49A4.94,4.94,0,0,1,87.97,8.047c1.7,4.045-1.716,10.95-3.626,13.668" transform="translate(-71.167 -5.011)" fill="#0a0a0a"/>
            </g>
          </g>
        </g>
      </g>
    </g>
  </g>
</svg>
